# xmcd CD database file
#
# Track frame offsets:
#	150
#	34615
#	59172
#	87409
#	101961
#	133617
#	137997
#	141608
#	171061
#	180658
#	201448
#	226322
#
# Disc length: 3309 seconds
#
# Revision: 0
# Processed by: cddbd v1.5.2PL0 Copyright (c) Steve Scherf et al.
# Submitted via: CDex 1.70beta2
#
DISCID=bc0ceb0c
DTITLE=Tomas Sauter - Wonderland
DYEAR=2010
DGENRE=Jazz
TTITLE0=The Same But Not The Same
TTITLE1=Eos
TTITLE2=Blue Demon II
TTITLE3=No Sleep Till Wonderland
TTITLE4=First Day In Spring
TTITLE5=Crossing 1
TTITLE6=Crossing 2
TTITLE7=Bei 40 Grad im Schatten
TTITLE8=Crossing 3
TTITLE9=Minor And Major Steps
TTITLE10=Piuki
TTITLE11=Petit Dance
EXTD=YEAR: 2010
EXTT0=
EXTT1=
EXTT2=
EXTT3=
EXTT4=
EXTT5=
EXTT6=
EXTT7=
EXTT8=
EXTT9=
EXTT10=
EXTT11=
PLAYORDER=
